<svg xmlns="http://www.w3.org/2000/svg" xmlns:xlink="http://www.w3.org/1999/xlink" width="173.61" height="40.96" viewBox="0 0 173.61 40.96"><defs><path id="p8kha" d="M642.45 40.61c3.22 0 6.17 1.22 8.16 3.4l-3.12 2.63a7.1 7.1 0 0 0-5.04-2c-3.8 0-7.12 2.68-7.12 6.94a6.99 6.99 0 0 0 7.12 7.12c1.95 0 3.76-.77 5.03-2.08l3.18 2.63c-2 2.17-4.94 3.44-8.2 3.44-6.04 0-11.21-4.4-11.21-11.1 0-6.72 5.17-10.98 11.2-10.98"/><path id="p8khb" d="M656.58 62.24h-4.13v-40.5h4.13v22.5c1.27-2.54 4.67-3.63 6.98-3.63 5.3 0 8.62 3.45 8.57 9.39v12.24h-4.12V50.27c0-3.5-2.1-5.63-5-5.63s-6.43 1.64-6.43 6.17z"/><path id="p8khc" d="M675.72 62.25h4.08V41.07h-4.08z"/><path id="p8khd" d="M687.75 21.75v40.5h-4.13v-40.5z"/><path id="p8khe" d="M691.56 62.24h4.13v-40.5h-4.13z"/><path id="p8khf" d="M703.62 62.24h-4.13v-40.5h4.13v22.5c1.27-2.54 4.67-3.63 6.98-3.63 5.3 0 8.62 3.45 8.57 9.39v12.24h-4.12V50.27c0-3.5-2.1-5.63-5-5.63s-6.43 1.64-6.43 6.17z"/><path id="p8khg" d="M721.41 51.59c0-6.72 5.03-10.98 11.06-10.98 6.04 0 11.12 4.26 11.12 10.97 0 6.72-5.08 11.12-11.12 11.12-6.03 0-11.06-4.4-11.06-11.12m18.05 0c0-4.26-3.18-6.93-6.99-6.93-3.8 0-6.98 2.67-6.98 6.94 0 4.3 3.18 7.11 6.98 7.11 3.81 0 6.99-2.8 6.99-7.12"/><path id="p8khh" d="M753.98 62.7c-5.3 0-8.2-3.45-8.16-9.39V41.07h4.13v11.97c0 3.54 1.72 5.63 4.62 5.63 3 0 5.99-1.64 5.99-6.17V41.07h4.13v21.18h-4.13v-3.18c-1.27 2.54-4.26 3.63-6.58 3.63"/><path id="p8khi" d="M767 46c.32-3.08 3.58-5.39 7.35-5.39 3.58 0 6.98 1.68 7.34 5.99h-3.94c-.23-1.6-1.68-2.4-3.31-2.4-1.54 0-2.86.76-3.18 1.9-.18.68-.18 1.18.05 1.68.4.86 1.4 1.31 2.5 1.63l3.12.77c4.4 1.09 5.49 3.76 5.49 6.17 0 3.94-3.81 6.35-8.2 6.35-3.82 0-7.76-2.45-7.9-6.8h3.76c.14.9.73 1.9 1.73 2.4.9.54 2 .81 3.35.72 1.9-.13 3.18-1.22 3.22-2.76.05-1.55-1.27-2.32-2.8-2.68l-2.91-.68c-3.86-1.04-6.03-3-5.67-6.9"/><path id="p8khj" d="M804.81 53.22h-17.18c.5 3.54 3.26 5.76 6.84 5.76 2.54 0 4.9-1.18 6.08-3.27 1.09.46 2.4.9 3.54 1.36-1.82 3.72-5.67 5.63-9.75 5.63-6.03 0-10.84-4.4-10.84-11.12 0-6.7 4.8-10.97 10.84-10.97 6.03 0 10.52 4.26 10.52 10.97 0 .5 0 1.18-.05 1.64zM800.78 50c-.5-3.54-3.04-5.67-6.44-5.67-3.5 0-6.22 2.13-6.71 5.67z"/><path id="p8khk" d="M677.75 21.75a2.63 2.63 0 0 1 2.68 2.68 2.63 2.63 0 0 1-2.67 2.67 2.66 2.66 0 0 1-2.68-2.67 2.66 2.66 0 0 1 2.67-2.68"/></defs><g><g transform="translate(-631.25 -21.74)"><use fill="#fdc599" xlink:href="#p8kha"/></g><g transform="translate(-631.25 -21.74)"><use fill="#fdc599" xlink:href="#p8khb"/></g><g transform="translate(-631.25 -21.74)"><use fill="#fdc599" xlink:href="#p8khc"/></g><g transform="translate(-631.25 -21.74)"><use fill="#fdc599" xlink:href="#p8khd"/></g><g transform="translate(-631.25 -21.74)"><use fill="#fdc599" xlink:href="#p8khe"/></g><g transform="translate(-631.25 -21.74)"><use fill="#fdc599" xlink:href="#p8khf"/></g><g transform="translate(-631.25 -21.74)"><use fill="#fdc599" xlink:href="#p8khg"/></g><g transform="translate(-631.25 -21.74)"><use fill="#fdc599" xlink:href="#p8khh"/></g><g transform="translate(-631.25 -21.74)"><use fill="#fdc599" xlink:href="#p8khi"/></g><g transform="translate(-631.25 -21.74)"><use fill="#fdc599" xlink:href="#p8khj"/></g><g transform="translate(-631.25 -21.74)"><use fill="#fdc599" xlink:href="#p8khk"/></g></g></svg>