<svg xmlns="http://www.w3.org/2000/svg" xmlns:xlink="http://www.w3.org/1999/xlink" version="1.2" baseProfile="tiny" id="Layer_1" x="0px" y="0px" viewBox="0 0 1000 1000" overflow="visible" xml:space="preserve">
<g>
	<path fill="#000000" d="M144,389.5H73.8v3.9c11.6,6.8,13.3,9.2,13.3,24.9v98.3c0,15.7-1.7,18.1-13.3,24.9v3.9h79.4   c57.1,0,84.4-38.2,84.4-82.8C237.5,415,206.4,389.5,144,389.5z M151.6,530.5c-6.8-0.7-12.4-4.6-12.4-10.9V403.9h2.2   c11.1,0,40.3,0,40.3,60.6C181.7,509.6,165.6,528.8,151.6,530.5z"/>
	<path fill="#000000" d="M916.2,435.7v3.9c4.4,4.6,7.2,9.4,7.2,15.7c0,3.3-0.7,7-2.4,11.1c-2.4,5.7-7.2,16.1-10.7,22.9l-17-29.4   c-2-3.3-3.3-6.3-3.3-9.2c0-3.7,2.4-7.2,8.9-11.1v-3.9h-72.6v3.9c6.8,6.8,9.2,10.2,11.1,13.7l44.4,85.5c-2.4,4.1-2.2,3.3-2.6,4.4   c-9.2,15-21.4,20.5-33.1,20.5c-3.3,0-6.1-0.4-8.7-1.1l-3.3,2.4l19.4,25.7c14.2-13.3,24.6-25.3,37.7-46c1.5-2.4,21.2-34.5,40.4-74.4   c8.5-17.7,10.9-22.7,19-30.7v-3.9H916.2z"/>
	<path fill="#000000" d="M317.1,449.6c8.5,8.3,9.2,12.6,9.2,30.3v34.9c-3.3,3.1-7.2,5.9-11.8,5.9c-7,0-12.4-4.4-12.4-15.7   c0-24.2,0.4-45.1,0.4-69.3c-18.8,5.7-37.9,8.9-56.7,10.2v3.7c8.3,8.3,9.2,12.6,9.2,30.3v33.1c0,32.3,25.3,35.3,34.7,35.3   c18.5,0,31-12,37.7-21.6v21.6l46.4-8.2v-26.7v-77.8c-18.7,5.7-37.9,8.9-56.7,10.2V449.6z"/>
	<path fill="#000000" d="M464.2,436.1c-19,0-28.3,11.8-31.2,20.7h-0.7l0.4-21.1c-15,4.5-30.7,7.6-46,9.2v100.5h60v-3.9   c-10.7-5.9-13.1-8.3-13.1-23.8v-49.3c0.7-1.3,2.2-2.8,5.2-2.8c7.2,0,17.7,11.1,24.2,19.6h3.9l6.5-47.5   C470.9,436.8,468.5,436.1,464.2,436.1z"/>
	<path fill="#000000" d="M776.7,456.8h-0.7l0.4-21.1c-15,4.5-30.7,7.6-46,9.2v100.5h60v-3.9c-10.7-5.9-13.1-8.3-13.1-23.8v-49.3   c0.7-1.3,2.2-2.8,5.2-2.8c7.2,0,17.7,11.1,24.2,19.6h3.9l6.5-47.5c-2.6-0.9-5-1.5-9.4-1.5C788.9,436.1,779.6,447.9,776.7,456.8z"/>
	<path fill="#000000" d="M670.3,450.5h-0.2c-6.1-8.7-16.6-17.4-31.8-17.4c-18.3,0-42.5,12.4-42.5,54.7c0,44.7,27.3,56.7,48.8,56.7   c25.5,0,31.8-16.6,42.9-16.6c5.7,0,13.1,4.4,25.9,17.4h4.4V409.5c0-5.7,2-7,9.4-17.2v-3.9c-19-1.3-37.9-4.4-56.9-10V450.5z    M670.3,507c-2.4,11.1-7.4,23.5-14.8,23.5c-6.8,0-10.2-10.5-10.2-36c0-22,2.6-39.7,14-39.7c5.2,0,9.6,4.8,11.1,8.5V507z"/>
	<path fill="#000000" d="M538,434.8c-35.3,0-52.1,17.2-57.6,30.3l27.9,14.4l3.5-1.1c2.8-13.1,9.8-30.5,20.3-30.5c5.7,0,7,5,7,8.7   l-0.4,16.6c-34.7,7.2-66.3,20.1-66.3,46c0,16.1,12,27,29.4,27c18.5,0,31.4-12.4,36.6-23.1h0.4c-0.7,10.7,5,23.1,25.1,23.1   c7.8,0,14.1-1.9,19.2-4.8v-77.2C580.4,449.5,570.8,434.8,538,434.8z M537.8,512.4c-0.9,2.6-4.6,5.9-8.5,5.9   c-4.6,0-8.3-3.9-8.3-12.4c0-10.9,7-20.1,17.7-23.8L537.8,512.4z"/>
</g>
</svg>
