<svg width="32" height="32" viewBox="0 0 32 32" fill="none" xmlns="http://www.w3.org/2000/svg">
<path d="M28.8462 24.6154V25.6923C28.8462 26.8348 28.3923 27.9305 27.5845 28.7383C26.7766 29.5462 25.6809 30 24.5385 30H17M28.8462 24.6154H24.5385C23.9672 24.6154 23.4194 24.3885 23.0155 23.9845C22.6115 23.5806 22.3846 23.0328 22.3846 22.4615V17.0769C22.3846 16.5057 22.6115 15.9578 23.0155 15.5539C23.4194 15.15 23.9672 14.9231 24.5385 14.9231H28.8462M28.8462 24.6154V14.9231M28.8462 14.9231C28.8462 13.226 28.5119 11.5455 27.8624 9.97763C27.213 8.40973 26.2611 6.9851 25.0611 5.78508C23.8611 4.58506 22.4364 3.63316 20.8685 2.98371C19.3006 2.33427 17.6202 2 15.9231 2C14.226 2 12.5455 2.33427 10.9776 2.98371C9.40973 3.63316 7.9851 4.58506 6.78508 5.78508C5.58506 6.9851 4.63316 8.40973 3.98371 9.97763C3.33427 11.5455 3 13.226 3 14.9231M3 14.9231V22.4615C3 23.0328 3.22692 23.5806 3.63085 23.9845C4.03477 24.3885 4.58261 24.6154 5.15385 24.6154H7.30769C7.87893 24.6154 8.42677 24.3885 8.83069 23.9845C9.23462 23.5806 9.46154 23.0328 9.46154 22.4615V17.0769C9.46154 16.5057 9.23462 15.9578 8.83069 15.5539C8.42677 15.15 7.87893 14.9231 7.30769 14.9231H3Z" stroke="url(#paint0_linear_4636_10035)" stroke-width="2.5" stroke-linecap="round" stroke-linejoin="round"/>
<defs>
<linearGradient id="paint0_linear_4636_10035" x1="20.3993" y1="30" x2="16.3749" y2="1.71358" gradientUnits="userSpaceOnUse">
<stop stop-color="black" stop-opacity="0.62"/>
<stop offset="1" stop-color="black"/>
</linearGradient>
</defs>
</svg>
