<svg width="32" height="32" viewBox="0 0 32 32" fill="none" xmlns="http://www.w3.org/2000/svg">
<path d="M20.2251 18.7833C20.3697 18.6871 20.5359 18.6285 20.7088 18.6128C20.8816 18.5971 21.0557 18.6247 21.2152 18.6933L27.3666 21.4494C27.5739 21.538 27.747 21.6914 27.8598 21.8865C27.9727 22.0817 28.0193 22.3082 27.9927 22.532C27.7901 24.0465 27.0443 25.4358 25.8941 26.4416C24.7438 27.4474 23.2675 28.0012 21.7395 28C17.0347 28 12.5226 26.131 9.19579 22.8042C5.86898 19.4774 4 14.9653 4 10.2605C3.99883 8.73253 4.55264 7.25616 5.55842 6.10594C6.5642 4.95572 7.95351 4.20994 9.46795 4.00729C9.69182 3.98069 9.91829 4.02732 10.1135 4.14018C10.3086 4.25305 10.462 4.42608 10.5506 4.63339L13.3067 10.79C13.3745 10.9482 13.402 11.1206 13.387 11.292C13.372 11.4633 13.3148 11.6283 13.2206 11.7722L10.4332 15.0867C10.3343 15.2359 10.2758 15.4082 10.2635 15.5867C10.2512 15.7653 10.2854 15.944 10.3628 16.1054C11.4415 18.3137 13.7241 20.569 15.939 21.6372C16.1012 21.7143 16.2807 21.7477 16.4598 21.7342C16.6389 21.7208 16.8114 21.6608 16.9603 21.5603L20.2251 18.7833Z" stroke="url(#paint0_linear_4636_10190)" stroke-width="2" stroke-linecap="round" stroke-linejoin="round"/>
<defs>
<linearGradient id="paint0_linear_4636_10190" x1="20.1565" y1="28" x2="16.9629" y2="3.68312" gradientUnits="userSpaceOnUse">
<stop stop-color="black" stop-opacity="0.62"/>
<stop offset="1" stop-color="black"/>
</linearGradient>
</defs>
</svg>
